<?xml version="1.0" encoding="UTF-8" standalone="no"?>
<!-- Generator: Gravit.io -->
<svg xmlns="http://www.w3.org/2000/svg" xmlns:xlink="http://www.w3.org/1999/xlink" style="isolation:isolate" viewBox="0 0 72 38" width="72pt" height="38pt"><defs><clipPath id="_clipPath_f1SGXjdcNhmp3VJenZGwwKEiEjAhE8DZ"><rect width="72" height="38"/></clipPath></defs><g clip-path="url(#_clipPath_f1SGXjdcNhmp3VJenZGwwKEiEjAhE8DZ)"><g><g><path d=" M 52.273 -0.158 C 59.873 -0.378 66.533 4.002 69.603 10.452 C 70.673 12.722 71.313 15.242 71.383 17.912 C 71.733 30.302 71.733 30.302 71.383 17.912 C 71.673 28.182 63.583 36.742 53.313 37.032 C 42.763 37.322 29.703 37.692 19.143 37.992 C 8.873 38.282 0.313 30.192 0.033 19.922 C -0.077 16.202 0.133 23.632 0.033 19.922 C -0.257 9.652 7.833 1.092 18.103 0.802 C 5.703 1.152 17.093 0.832 52.273 -0.158 Z " fill="rgb(244,124,39)"/></g><g><path d=" M 49.743 0.312 C 57.053 0.312 63.323 4.712 65.953 10.962 C 66.803 12.992 67.273 15.222 67.273 17.552 C 67.273 21.002 67.273 29.052 67.273 17.592 C 67.273 21.582 65.893 25.252 63.563 28.172 C 60.363 32.202 55.363 34.792 49.743 34.792 C 16.593 34.792 5.763 34.792 17.253 34.792 C 7.733 34.792 0.013 27.072 0.013 17.552 C 0.013 14.102 0.013 21.002 0.013 17.552 C 0.013 8.032 7.733 0.312 17.253 0.312 C 23.753 0.312 39.803 0.312 49.743 0.312 Z " fill="rgb(255,194,25)"/></g></g></g></svg>