<?xml version="1.0" encoding="UTF-8" standalone="no"?>
<!DOCTYPE svg PUBLIC "-//W3C//DTD SVG 1.1//EN" "http://www.w3.org/Graphics/SVG/1.1/DTD/svg11.dtd">
<svg version="1.1" xmlns="http://www.w3.org/2000/svg" xmlns:xlink="http://www.w3.org/1999/xlink" preserveAspectRatio="xMidYMid meet" viewBox="0 0 71 37" width="71" height="37"><defs><path d="M69.6 10.62C70.68 12.89 71.31 15.41 71.38 18.08C71.73 30.48 71.73 30.48 71.38 18.08C71.67 28.35 63.58 36.91 53.31 37.2C42.76 37.5 29.7 37.86 19.14 38.16C8.88 38.45 0.32 30.36 0.03 20.09C-0.08 16.37 0.13 23.81 0.03 20.09C-0.26 9.82 7.83 1.26 18.1 0.97C5.7 1.32 17.09 1 52.27 0.01C59.87 -0.2 66.53 4.17 69.6 10.62Z" id="b6lVc2jbww"></path><path d="M65.95 11.14C66.8 13.17 67.27 15.39 67.27 17.72C67.27 21.17 67.27 29.23 67.27 17.77C67.27 21.75 65.89 25.42 63.57 28.34C60.36 32.37 55.36 34.96 49.75 34.96C16.59 34.96 5.76 34.96 17.25 34.96C7.73 34.96 0.01 27.24 0.01 17.72C0.01 14.27 0.01 21.17 0.01 17.72C0.01 8.2 7.73 0.48 17.25 0.48C23.75 0.48 39.8 0.48 49.75 0.48C57.05 0.48 63.32 4.88 65.95 11.14Z" id="cRNklyZaD"></path></defs><g><g><g><g><use xlink:href="#b6lVc2jbww" opacity="1" fill="#f47c27" fill-opacity="1"></use><g><use xlink:href="#b6lVc2jbww" opacity="1" fill-opacity="0" stroke="#000000" stroke-width="1" stroke-opacity="0"></use></g></g><g><use xlink:href="#cRNklyZaD" opacity="1" fill="#ffc219" fill-opacity="1"></use><g><use xlink:href="#cRNklyZaD" opacity="1" fill-opacity="0" stroke="#000000" stroke-width="1" stroke-opacity="0"></use></g></g></g></g></g></svg>