<?xml version="1.0" encoding="UTF-8" standalone="no"?>
<!DOCTYPE svg PUBLIC "-//W3C//DTD SVG 1.1//EN" "http://www.w3.org/Graphics/SVG/1.1/DTD/svg11.dtd">
<svg version="1.1" xmlns="http://www.w3.org/2000/svg" xmlns:xlink="http://www.w3.org/1999/xlink" preserveAspectRatio="xMidYMid meet" viewBox="0 0 120 414" width="120" height="414"><defs><path d="M58.25 -8.49C63.77 -8.49 68.25 -2.72 68.25 4.39C68.25 45.6 68.25 375.25 68.25 416.46C68.25 423.57 63.77 429.33 58.25 429.33C52.72 429.33 48.25 423.57 48.25 416.46C48.25 334.04 48.25 45.6 48.25 4.39C48.25 -2.72 52.72 -8.49 58.25 -8.49Z" id="a10qufTQpN"></path><path d="M58.25 -8.49C63.77 -8.49 68.25 -2.72 68.25 4.39C68.25 45.6 68.25 375.25 68.25 416.46C68.25 423.57 63.77 429.33 58.25 429.33C52.72 429.33 48.25 423.57 48.25 416.46C48.25 334.04 48.25 45.6 48.25 4.39C48.25 -2.72 52.72 -8.49 58.25 -8.49Z" id="iSOiCxTMN"></path><path d="M68.25 20.82C68.25 8.82 68.25 2.16 68.25 0.82C68.25 -4.7 63.77 -9.18 58.25 -9.18C52.72 -9.18 48.25 -4.7 48.25 0.82C48.25 3.49 48.25 10.16 48.25 20.82C52.25 20.82 66.25 20.82 68.25 20.82Z" id="femgBFfvB"></path><path d="M68.25 20.82C68.25 8.82 68.25 2.16 68.25 0.82C68.25 -4.7 63.77 -9.18 58.25 -9.18C52.72 -9.18 48.25 -4.7 48.25 0.82C48.25 3.49 48.25 10.16 48.25 20.82C52.25 20.82 66.25 20.82 68.25 20.82Z" id="c1ojNRFwD1"></path><path d="M93.2 36.89C94.28 39.16 94.91 41.68 94.98 44.35C95.33 56.75 95.33 56.75 94.98 44.35C95.27 54.62 87.18 63.18 76.91 63.47C66.36 63.77 53.3 64.13 42.74 64.43C32.48 64.72 23.92 56.63 23.63 46.36C23.52 42.64 23.73 50.08 23.63 46.36C23.34 36.09 31.43 27.53 41.7 27.24C29.3 27.59 40.69 27.27 75.87 26.28C83.47 26.07 90.13 30.44 93.2 36.89Z" id="a7J1mRMOv"></path><path d="M89.55 37.41C90.4 39.44 90.87 41.66 90.87 43.99C90.87 47.44 90.87 55.5 90.87 44.04C90.87 48.02 89.49 51.69 87.17 54.61C83.96 58.64 78.96 61.23 73.35 61.23C40.19 61.23 29.36 61.23 40.85 61.23C31.33 61.23 23.61 53.51 23.61 43.99C23.61 40.54 23.61 47.44 23.61 43.99C23.61 34.47 31.33 26.75 40.85 26.75C47.35 26.75 63.4 26.75 73.35 26.75C80.65 26.75 86.92 31.15 89.55 37.41Z" id="e17RejYut9"></path><path d="M94.32 81.91C95.4 84.18 96.03 86.7 96.11 89.37C96.45 101.77 96.45 101.77 96.11 89.37C96.39 99.64 88.3 108.2 78.03 108.49C67.48 108.79 54.42 109.15 43.87 109.45C33.6 109.74 25.04 101.65 24.75 91.38C24.64 87.66 24.85 95.1 24.75 91.38C24.46 81.11 32.55 72.55 42.82 72.26C30.42 72.61 41.81 72.29 76.99 71.3C84.59 71.09 91.25 75.46 94.32 81.91Z" id="cmIpzi4E0"></path><path d="M90.67 82.43C91.52 84.46 91.99 86.68 91.99 89.01C91.99 92.46 91.99 100.52 91.99 89.06C91.99 93.04 90.61 96.72 88.29 99.63C85.08 103.66 80.08 106.25 74.47 106.25C41.31 106.25 30.48 106.25 41.97 106.25C32.45 106.25 24.73 98.53 24.73 89.01C24.73 85.56 24.73 92.46 24.73 89.01C24.73 79.49 32.45 71.77 41.97 71.77C48.47 71.77 64.52 71.77 74.47 71.77C81.77 71.77 88.04 76.17 90.67 82.43Z" id="a6y7e7fvYW"></path><path d="M127.5 121.78L127.5 152.9L-7.5 152.9L-7.5 121.78L127.5 121.78Z" id="a6xQ8ACPEJ"></path><path d="M93.2 175.29C94.28 177.55 94.91 180.08 94.98 182.75C95.33 195.14 95.33 195.14 94.98 182.75C95.27 193.02 87.18 201.58 76.91 201.86C66.36 202.16 53.3 202.53 42.74 202.83C32.48 203.12 23.92 195.02 23.63 184.76C23.52 181.04 23.73 188.47 23.63 184.76C23.34 174.49 31.43 165.93 41.7 165.64C29.3 165.99 40.69 165.67 75.87 164.68C83.47 164.46 90.13 168.84 93.2 175.29Z" id="dAyqw5Nsf"></path><path d="M89.55 175.8C90.4 177.83 90.87 180.05 90.87 182.39C90.87 185.83 90.87 193.89 90.87 182.43C90.87 186.42 89.49 190.09 87.17 193.01C83.96 197.03 78.96 199.62 73.35 199.62C40.19 199.62 29.36 199.62 40.85 199.62C31.33 199.62 23.61 191.91 23.61 182.39C23.61 178.94 23.61 185.83 23.61 182.39C23.61 172.87 31.33 165.15 40.85 165.15C47.35 165.15 63.4 165.15 73.35 165.15C80.65 165.15 86.92 169.55 89.55 175.8Z" id="b4hzlbfnw"></path><path d="M94.35 221.98C95.43 224.24 96.07 226.76 96.14 229.43C96.49 241.83 96.49 241.83 96.14 229.43C96.43 239.7 88.34 248.26 78.07 248.55C67.52 248.85 54.45 249.22 43.9 249.51C33.63 249.8 25.07 241.71 24.78 231.44C24.68 227.72 24.89 235.16 24.78 231.44C24.49 221.17 32.59 212.61 42.85 212.32C30.46 212.67 41.85 212.35 77.02 211.36C84.62 211.15 91.29 215.52 94.35 221.98Z" id="a8d64p3NCJ"></path><path d="M90.7 222.49C91.56 224.52 92.03 226.74 92.03 229.07C92.03 232.52 92.03 240.58 92.03 229.12C92.03 233.11 90.64 236.78 88.32 239.69C85.11 243.72 80.12 246.31 74.5 246.31C64.56 246.31 48.51 246.31 42.01 246.31C32.49 246.31 24.77 238.59 24.77 229.07C24.77 225.63 24.77 232.52 24.77 229.07C24.77 219.55 32.49 211.84 42.01 211.84C48.51 211.84 64.56 211.84 74.5 211.84C81.81 211.84 88.07 216.24 90.7 222.49Z" id="b6S7TZa5B"></path><path d="M93.2 268.66C94.28 270.93 94.91 273.45 94.98 276.12C95.33 288.52 95.33 288.52 94.98 276.12C95.27 286.39 87.18 294.95 76.91 295.24C66.36 295.54 53.3 295.9 42.74 296.2C32.48 296.49 23.92 288.4 23.63 278.13C23.52 274.41 23.73 281.85 23.63 278.13C23.34 267.86 31.43 259.3 41.7 259.01C29.3 259.36 40.69 259.04 75.87 258.05C83.47 257.84 90.13 262.21 93.2 268.66Z" id="a3RBWaWWx0"></path><path d="M89.55 269.18C90.4 271.21 90.87 273.43 90.87 275.76C90.87 279.21 90.87 287.27 90.87 275.81C90.87 279.79 89.49 283.47 87.17 286.38C83.96 290.41 78.96 293 73.35 293C63.4 293 47.35 293 40.85 293C31.33 293 23.61 285.28 23.61 275.76C23.61 272.31 23.61 279.21 23.61 275.76C23.61 266.24 31.33 258.52 40.85 258.52C47.35 258.52 63.4 258.52 73.35 258.52C80.65 258.52 86.92 262.92 89.55 269.18Z" id="dar20IxT8"></path><path d="M93.2 315.03C94.28 317.3 94.91 319.82 94.98 322.49C95.33 334.88 95.33 334.88 94.98 322.49C95.27 332.76 87.18 341.32 76.91 341.61C66.36 341.9 53.3 342.27 42.74 342.57C32.48 342.86 23.92 334.77 23.63 324.5C23.52 320.78 23.73 328.21 23.63 324.5C23.34 314.23 31.43 305.67 41.7 305.38C29.3 305.73 40.69 305.41 75.87 304.42C83.47 304.2 90.13 308.58 93.2 315.03Z" id="b4mpz2JJsw"></path><path d="M89.55 315.54C90.4 317.57 90.87 319.8 90.87 322.13C90.87 325.58 90.87 333.63 90.87 322.17C90.87 326.16 89.49 329.83 87.17 332.75C83.96 336.78 78.96 339.37 73.35 339.37C63.4 339.37 47.35 339.37 40.85 339.37C31.33 339.37 23.61 331.65 23.61 322.13C23.61 318.68 23.61 325.58 23.61 322.13C23.61 312.61 31.33 304.89 40.85 304.89C47.35 304.89 63.4 304.89 73.35 304.89C80.65 304.89 86.92 309.29 89.55 315.54Z" id="bLvp5AB9l"></path><path d="M67.5 399C67.5 411 67.5 417.67 67.5 419C67.5 424.52 63.3 429 58.13 429C52.95 429 48.75 424.52 48.75 419C48.75 416.33 48.75 409.67 48.75 399C52.5 399 65.63 399 67.5 399Z" id="bEkhPG3WM"></path><path d="M67.5 399C67.5 411 67.5 417.67 67.5 419C67.5 424.52 63.3 429 58.13 429C52.95 429 48.75 424.52 48.75 419C48.75 416.33 48.75 409.67 48.75 399C52.5 399 65.63 399 67.5 399Z" id="bbyJtApAQ"></path><path d="M68.19 153.1L68.19 160.77L48.34 160.77L48.34 153.1L68.19 153.1Z" id="biUTZA0Do"></path><path d="M68.16 113.87L68.16 121.54L48.34 121.54L48.34 113.87L68.16 113.87Z" id="g13R4BWWeZ"></path><path d="M93.78 361.03C94.85 363.3 95.49 365.82 95.56 368.49C95.91 380.88 95.91 380.88 95.56 368.49C95.85 378.76 87.76 387.32 77.49 387.61C66.94 387.9 53.88 388.27 43.32 388.57C33.05 388.86 24.49 380.77 24.21 370.5C24.1 366.78 24.31 374.21 24.21 370.5C23.92 360.23 32.01 351.67 42.28 351.38C29.88 351.73 41.27 351.41 76.45 350.42C84.05 350.2 90.71 354.58 93.78 361.03Z" id="bU50Oa1Bk"></path><path d="M90.13 361.54C90.98 363.57 91.45 365.8 91.45 368.13C91.45 371.58 91.45 379.63 91.45 368.17C91.45 372.16 90.07 375.83 87.74 378.75C84.54 382.78 79.54 385.37 73.92 385.37C40.77 385.37 29.94 385.37 41.43 385.37C31.91 385.37 24.19 377.65 24.19 368.13C24.19 364.68 24.19 371.58 24.19 368.13C24.19 358.61 31.91 350.89 41.43 350.89C47.93 350.89 63.98 350.89 73.92 350.89C81.23 350.89 87.5 355.29 90.13 361.54Z" id="fMOiQzqv0"></path></defs><g><g><g><use xlink:href="#a10qufTQpN" opacity="1" fill="#333333" fill-opacity="1"></use><g><use xlink:href="#a10qufTQpN" opacity="1" fill-opacity="0" stroke="#000000" stroke-width="1" stroke-opacity="0"></use></g></g><g><use xlink:href="#iSOiCxTMN" opacity="1" fill="#000000" fill-opacity="0"></use><g><use xlink:href="#iSOiCxTMN" opacity="1" fill-opacity="0" stroke="#000000" stroke-width="1" stroke-opacity="0"></use></g></g><g><use xlink:href="#femgBFfvB" opacity="1" fill="#1f1f1f" fill-opacity="1"></use><g><use xlink:href="#femgBFfvB" opacity="1" fill-opacity="0" stroke="#000000" stroke-width="1" stroke-opacity="0"></use></g></g><g><use xlink:href="#c1ojNRFwD1" opacity="1" fill="#000000" fill-opacity="0"></use><g><use xlink:href="#c1ojNRFwD1" opacity="1" fill-opacity="0" stroke="#000000" stroke-width="1" stroke-opacity="0"></use></g></g><g><use xlink:href="#a7J1mRMOv" opacity="1" fill="#378d07" fill-opacity="1"></use><g><use xlink:href="#a7J1mRMOv" opacity="1" fill-opacity="0" stroke="#000000" stroke-width="1" stroke-opacity="0"></use></g></g><g><use xlink:href="#e17RejYut9" opacity="1" fill="#08ea00" fill-opacity="1"></use><g><use xlink:href="#e17RejYut9" opacity="1" fill-opacity="0" stroke="#000000" stroke-width="1" stroke-opacity="0"></use></g></g><g><use xlink:href="#cmIpzi4E0" opacity="1" fill="#378d07" fill-opacity="1"></use><g><use xlink:href="#cmIpzi4E0" opacity="1" fill-opacity="0" stroke="#000000" stroke-width="1" stroke-opacity="0"></use></g></g><g><use xlink:href="#a6y7e7fvYW" opacity="1" fill="#08ea00" fill-opacity="1"></use><g><use xlink:href="#a6y7e7fvYW" opacity="1" fill-opacity="0" stroke="#000000" stroke-width="1" stroke-opacity="0"></use></g></g><g><use xlink:href="#a6xQ8ACPEJ" opacity="1" fill="#6d5c49" fill-opacity="1"></use><g><use xlink:href="#a6xQ8ACPEJ" opacity="1" fill-opacity="0" stroke="#000000" stroke-width="1" stroke-opacity="0"></use></g></g><g><use xlink:href="#dAyqw5Nsf" opacity="1" fill="#378d07" fill-opacity="1"></use><g><use xlink:href="#dAyqw5Nsf" opacity="1" fill-opacity="0" stroke="#000000" stroke-width="1" stroke-opacity="0"></use></g></g><g><use xlink:href="#b4hzlbfnw" opacity="1" fill="#08ea00" fill-opacity="1"></use><g><use xlink:href="#b4hzlbfnw" opacity="1" fill-opacity="0" stroke="#000000" stroke-width="1" stroke-opacity="0"></use></g></g><g><use xlink:href="#a8d64p3NCJ" opacity="1" fill="#378d07" fill-opacity="1"></use><g><use xlink:href="#a8d64p3NCJ" opacity="1" fill-opacity="0" stroke="#000000" stroke-width="1" stroke-opacity="0"></use></g></g><g><use xlink:href="#b6S7TZa5B" opacity="1" fill="#08ea00" fill-opacity="1"></use><g><use xlink:href="#b6S7TZa5B" opacity="1" fill-opacity="0" stroke="#000000" stroke-width="1" stroke-opacity="0"></use></g></g><g><use xlink:href="#a3RBWaWWx0" opacity="1" fill="#378d07" fill-opacity="1"></use><g><use xlink:href="#a3RBWaWWx0" opacity="1" fill-opacity="0" stroke="#000000" stroke-width="1" stroke-opacity="0"></use></g></g><g><use xlink:href="#dar20IxT8" opacity="1" fill="#08ea00" fill-opacity="1"></use><g><use xlink:href="#dar20IxT8" opacity="1" fill-opacity="0" stroke="#000000" stroke-width="1" stroke-opacity="0"></use></g></g><g><use xlink:href="#b4mpz2JJsw" opacity="1" fill="#378d07" fill-opacity="1"></use><g><use xlink:href="#b4mpz2JJsw" opacity="1" fill-opacity="0" stroke="#000000" stroke-width="1" stroke-opacity="0"></use></g></g><g><use xlink:href="#bLvp5AB9l" opacity="1" fill="#08ea00" fill-opacity="1"></use><g><use xlink:href="#bLvp5AB9l" opacity="1" fill-opacity="0" stroke="#000000" stroke-width="1" stroke-opacity="0"></use></g></g><g><use xlink:href="#bEkhPG3WM" opacity="1" fill="#1f1f1f" fill-opacity="1"></use><g><use xlink:href="#bEkhPG3WM" opacity="1" fill-opacity="0" stroke="#000000" stroke-width="1" stroke-opacity="0"></use></g></g><g><use xlink:href="#bbyJtApAQ" opacity="1" fill="#000000" fill-opacity="0"></use><g><use xlink:href="#bbyJtApAQ" opacity="1" fill-opacity="0" stroke="#000000" stroke-width="1" stroke-opacity="0"></use></g></g><g><use xlink:href="#biUTZA0Do" opacity="1" fill="#1f1f1f" fill-opacity="1"></use><g><use xlink:href="#biUTZA0Do" opacity="1" fill-opacity="0" stroke="#000000" stroke-width="1" stroke-opacity="0"></use></g></g><g><use xlink:href="#g13R4BWWeZ" opacity="1" fill="#1f1f1f" fill-opacity="1"></use><g><use xlink:href="#g13R4BWWeZ" opacity="1" fill-opacity="0" stroke="#000000" stroke-width="1" stroke-opacity="0"></use></g></g><g><use xlink:href="#bU50Oa1Bk" opacity="1" fill="#378d07" fill-opacity="1"></use><g><use xlink:href="#bU50Oa1Bk" opacity="1" fill-opacity="0" stroke="#000000" stroke-width="1" stroke-opacity="0"></use></g></g><g><use xlink:href="#fMOiQzqv0" opacity="1" fill="#08ea00" fill-opacity="1"></use><g><use xlink:href="#fMOiQzqv0" opacity="1" fill-opacity="0" stroke="#000000" stroke-width="1" stroke-opacity="0"></use></g></g></g></g></svg>