<?xml version="1.0" encoding="UTF-8" standalone="no"?><!-- Generator: Gravit.io --><svg xmlns="http://www.w3.org/2000/svg" xmlns:xlink="http://www.w3.org/1999/xlink" style="isolation:isolate" viewBox="0 0 418 398" width="418pt" height="398pt"><defs><clipPath id="_clipPath_zBlrQsRpRCYkRL8pwqdBoVnah5KLfQ1R"><rect width="418" height="398"/></clipPath></defs><g clip-path="url(#_clipPath_zBlrQsRpRCYkRL8pwqdBoVnah5KLfQ1R)"><g><path d=" M 417.771 151.687 L 273.514 130.722 L 209 0 L 144.485 130.722 L 0.229 151.687 L 104.614 253.448 L 79.972 397.125 L 209 329.285 L 338.028 397.125 L 313.385 253.448 L 417.771 151.687 Z " fill="rgb(255,206,84)"/><path d=" M 209 229.156 L 417.771 151.687 L 273.514 130.722 L 209 229.156 Z " fill="rgb(232,232,232)"/><path d=" M 209 229 L 338.028 397.125 L 313.385 253.448 L 209 229 Z " fill="rgb(232,232,232)"/><path d=" M 417.771 151.687 L 209 229.156 L 313.385 253.448 L 417.771 151.687 Z " fill="rgb(232,232,232)"/><g><path d=" M 209 229.156 L 209 329.285 L 338.028 397.125 L 209 229.156 Z " fill="rgb(232,232,232)"/><path d=" M 104.614 253.448 L 79.972 397.125 L 209 229.156 L 104.614 253.448 Z " fill="rgb(246,187,66)"/><path d=" M 144.485 130.722 L 0.229 151.687 L 209 229.156 L 144.485 130.722 Z " fill="rgb(246,187,66)"/><path d=" M 209 0 L 209 229.156 L 273.514 130.722 L 209 0 Z " fill="rgb(232,232,232)"/></g></g></g></svg>